HIERARCHY
ROOT Hips
{
	OFFSET -19.892155 55.119549 0.522530
	CHANNELS 6 Xposition Yposition Zposition Xrotation Yrotation Zrotation
	JOINT Chest
	{
		OFFSET -4.805847 12.768078 0.185010
		CHANNELS 3 Xrotation Yrotation Zrotation
		JOINT Chest2
		{
			OFFSET -3.558033 19.120811 8.988977
			CHANNELS 3 Xrotation Yrotation Zrotation
			JOINT Chest3
			{
				OFFSET -2.844774 14.401093 2.708437
				CHANNELS 3 Xrotation Yrotation Zrotation
				JOINT Neck
				{
					OFFSET -3.705606 16.438744 3.827818
					CHANNELS 3 Xrotation Yrotation Zrotation
					JOINT Head
					{
						OFFSET -2.912117 8.424332 5.511612
						CHANNELS 3 Xrotation Yrotation Zrotation
						End Site
						{
							OFFSET -2.937904 8.455070 5.450510
						}
					}
				}
				JOINT LeftCollar
				{
					OFFSET 2.137953 13.708771 3.050107
					CHANNELS 3 Xrotation Yrotation Zrotation
					JOINT LeftUpArm
					{
						OFFSET 12.331263 6.580055 -10.636837
						CHANNELS 3 Xrotation Yrotation Zrotation
						JOINT LeftLowArm
						{
							OFFSET 24.958023 0.483459 22.728649
							CHANNELS 3 Xrotation Yrotation Zrotation
							JOINT LeftHand
							{
								OFFSET -10.071971 26.506279 9.844807
								CHANNELS 3 Xrotation Yrotation Zrotation
								End Site
								{
									OFFSET -2.201297 5.793091 2.151653
								}
							}
						}
					}
				}
				JOINT RightCollar
				{
					OFFSET -4.514986 11.165092 7.534210
					CHANNELS 3 Xrotation Yrotation Zrotation
					JOINT RightUpArm
					{
						OFFSET -13.588017 0.746918 11.104239
						CHANNELS 3 Xrotation Yrotation Zrotation
						JOINT RightLowArm
						{
							OFFSET 28.001656 4.829536 18.229576
							CHANNELS 3 Xrotation Yrotation Zrotation
							JOINT RightHand
							{
								OFFSET 9.941988 27.518982 -6.694572
								CHANNELS 3 Xrotation Yrotation Zrotation
								End Site
								{
									OFFSET 2.172926 6.014542 -1.463169
								}
							}
						}
					}
				}
			}
		}
	}
	JOINT LeftUpLeg
	{
		OFFSET 8.774031 3.352882 -3.491948
		CHANNELS 3 Xrotation Yrotation Zrotation
		JOINT LeftLowLeg
		{
			OFFSET 39.629589 8.265697 24.600042
			CHANNELS 3 Xrotation Yrotation Zrotation
			JOINT LeftFoot
			{
				OFFSET 0.308422 -40.877998 -18.151073
				CHANNELS 3 Xrotation Yrotation Zrotation
				JOINT LeftToe
				{
					OFFSET 20.012949 -9.968132 7.725137
					CHANNELS 3 Xrotation Yrotation Zrotation
					End Site
					{
						OFFSET 18.582241 4.675385 13.870831
					}
				}
			}
		}
	}
	JOINT RightUpLeg
	{
		OFFSET -8.773964 -3.353069 3.491946
		CHANNELS 3 Xrotation Yrotation Zrotation
		JOINT RightLowLeg
		{
			OFFSET -6.802193 -38.199287 27.176397
			CHANNELS 3 Xrotation Yrotation Zrotation
			JOINT RightFoot
			{
				OFFSET -10.591347 12.562780 -41.600269
				CHANNELS 3 Xrotation Yrotation Zrotation
				JOINT RightToe
				{
					OFFSET -4.231178 -21.343887 -9.278651
					CHANNELS 3 Xrotation Yrotation Zrotation
					End Site
					{
						OFFSET -1.868702 -22.686485 6.433306
					}
				}
			}
		}
	}
}
MOTION
Frames: 7
Frame Time: 0.033333
-4.958268 34.245007 8.960789 -292.754694 -64.998218 -276.762107 8.824269 -0.167762 6.371229 12.763149 -8.582327 10.024624 -6.598352 -25.639970 -27.174700 9.170098 10.721802 -7.411404 0.000002 -0.000001 -0.000000 3.977164 4.124317 -14.024596 17.671549 18.883958 -18.231732 63.894357 5.873853 -23.591446 0.000004 0.000002 -0.000001 22.010413 -31.397540 18.761418 71.336961 -67.729235 19.696891 -38.204964 45.446624 -15.308909 0.000001 0.000000 -0.000001 53.708626 11.041475 -59.364842 -20.871697 -20.238149 83.755645 33.972879 -32.879346 -69.107622 0.000001 -0.000002 -0.000002 -68.231609 -9.525425 17.775509 24.100343 -41.845745 81.078225 57.256926 -19.165219 -15.692927 0.000002 0.000001 -0.000000 
-5.251467 34.082718 8.940751 -290.752110 -62.182274 -277.515258 7.350411 -0.783911 7.350883 12.912181 -7.466111 8.655449 -5.415242 -25.327784 -25.335204 7.857258 9.993911 -6.071467 -0.000000 -0.000002 -0.000001 3.805964 5.178495 -13.313997 19.007021 21.393886 -20.874100 65.590566 4.758954 -21.303572 0.000001 -0.000001 -0.000003 23.029945 -30.546816 19.269285 69.485905 -67.609529 17.737229 -39.669735 42.637760 -11.040115 -0.000000 -0.000002 0.000001 53.671671 11.512239 -58.754599 -20.614351 -19.324099 80.912600 34.277479 -29.538430 -65.083937 -0.000002 -0.000000 -0.000003 -71.597922 -9.961438 16.536872 27.033935 -43.209662 87.762754 54.071753 -18.568952 -17.875891 -0.000001 -0.000000 -0.000000 
-5.506809 33.940399 8.900570 -287.464111 -59.676299 -278.046701 7.157806 -0.992772 8.292726 11.418896 -6.525637 7.647263 -3.614663 -24.927636 -23.962926 5.999850 10.698851 -5.933748 0.000002 0.000001 0.000002 3.528374 6.498108 -13.070694 20.169526 26.015825 -22.886413 66.933272 3.465100 -17.259924 0.000001 -0.000002 -0.000001 23.473079 -30.135146 19.208614 70.147368 -67.958005 18.173909 -40.094252 40.718190 -9.114353 -0.000000 -0.000006 0.000001 54.196960 12.252991 -58.360080 -20.737872 -19.043025 78.220201 34.646333 -26.524177 -61.691600 0.000001 0.000003 -0.000004 -74.538585 -9.968778 14.714024 31.254485 -43.883484 95.128136 51.198797 -17.703707 -20.380033 -0.000001 0.000001 -0.000001 
-5.728005 33.804657 8.863606 -286.225170 -58.004261 -278.191201 7.103240 -0.956212 7.771382 10.505303 -7.530180 9.001404 -3.458757 -24.522800 -25.282174 4.897801 10.836633 -5.581563 0.000002 0.000000 -0.000002 3.198481 7.723430 -12.283063 21.338640 30.641557 -24.603038 68.060001 3.573814 -16.997650 -0.000000 -0.000003 -0.000001 23.425032 -30.168249 18.973159 71.607321 -69.279920 20.178185 -38.728364 40.819618 -11.486061 -0.000002 -0.000003 0.000005 54.553530 11.856272 -58.970084 -20.971567 -19.229552 77.344427 34.838664 -25.119759 -60.291924 -0.000001 -0.000003 0.000002 -76.375196 -9.649826 12.684543 33.573197 -45.163417 101.048687 50.463473 -17.658472 -21.686074 -0.000001 0.000000 -0.000001 
-5.921879 33.709240 8.848221 -286.682929 -56.774848 -280.526934 7.654018 -0.821620 7.782914 9.890907 -7.574050 9.032638 -3.227330 -25.012974 -24.801395 4.139153 11.298227 -5.787767 -0.000002 0.000000 -0.000001 3.245733 8.360835 -12.266916 22.683555 34.304796 -26.766985 67.433583 4.112016 -16.607989 0.000002 -0.000002 -0.000001 23.186307 -31.006197 18.864166 77.512716 -71.091635 25.971156 -38.150046 46.186897 -16.928002 -0.000000 -0.000001 0.000001 54.834063 12.221681 -58.959436 -20.750521 -19.039052 75.618582 34.572847 -23.339655 -58.397093 0.000002 0.000003 -0.000003 -77.983985 -9.415444 11.075312 36.101873 -45.409570 105.625740 50.316849 -17.884169 -24.221558 0.000000 -0.000001 -0.000000 
-6.101347 33.606285 8.836390 -287.359910 -56.174840 -282.235793 8.444769 -0.790211 8.922764 8.700369 -8.374106 10.091239 -2.537349 -23.882255 -25.706962 2.958970 9.988590 -4.403873 0.000000 -0.000001 0.000001 3.280940 9.312573 -11.456598 25.476843 38.543273 -30.750970 67.443781 4.111487 -13.744816 0.000002 -0.000001 -0.000003 23.532085 -31.588450 18.982899 88.601351 -73.213686 36.619704 -41.628613 51.613684 -16.859550 -0.000001 -0.000005 -0.000001 56.066697 11.896978 -60.019673 -20.643279 -19.602146 74.986441 34.588921 -21.757095 -56.818937 0.000001 0.000003 -0.000003 -79.249619 -9.879663 11.872702 36.775467 -44.837415 106.046268 48.876601 -17.744478 -26.698906 0.000000 -0.000000 -0.000001 
-6.259842 33.514168 8.825965 -288.816270 -55.838965 -284.548331 9.110446 -0.844156 10.309598 7.762537 -8.320661 10.118642 -1.715857 -23.280575 -25.539918 2.819741 8.908073 -3.370757 -0.000002 0.000000 -0.000001 3.576948 9.657802 -11.324734 28.547643 39.289031 -35.423653 66.223909 3.619979 -8.652165 0.000001 -0.000006 0.000002 24.097659 -31.554726 19.069205 102.591285 -74.135973 49.162035 -46.583748 59.274526 -16.500257 0.000002 0.000003 -0.000001 56.807243 11.315510 -60.940109 -20.437878 -19.499902 74.375706 35.056916 -20.365174 -55.795501 0.000001 -0.000003 -0.000002 -80.156703 -9.835454 11.472378 38.134824 -44.570212 108.249319 47.537099 -17.612409 -29.119569 0.000002 0.000001 0.000000 
